<?xml version="1.0" encoding="utf-8" standalone="no"?>
<!DOCTYPE svg PUBLIC "-//W3C//DTD SVG 1.1//EN"
  "http://www.w3.org/Graphics/SVG/1.1/DTD/svg11.dtd">
<svg xmlns:xlink="http://www.w3.org/1999/xlink" width="604.8pt" height="403.2pt" viewBox="0 0 604.8 403.2" xmlns="http://www.w3.org/2000/svg" version="1.1">
 <metadata>
  <rdf:RDF xmlns:dc="http://purl.org/dc/elements/1.1/" xmlns:cc="http://creativecommons.org/ns#" xmlns:rdf="http://www.w3.org/1999/02/22-rdf-syntax-ns#">
   <cc:Work>
    <dc:type rdf:resource="http://purl.org/dc/dcmitype/StillImage"/>
    <dc:date>2026-07-07T14:51:14.629148</dc:date>
    <dc:format>image/svg+xml</dc:format>
    <dc:creator>
     <cc:Agent>
      <dc:title>Matplotlib v3.10.8, https://matplotlib.org/</dc:title>
     </cc:Agent>
    </dc:creator>
   </cc:Work>
  </rdf:RDF>
 </metadata>
 <defs>
  <style type="text/css">*{stroke-linejoin: round; stroke-linecap: butt}</style>
 </defs>
 <g id="figure_1">
  <g id="patch_1">
   <path d="M 0 403.2 
L 604.8 403.2 
L 604.8 0 
L 0 0 
z
" style="fill: #ffffff"/>
  </g>
  <g id="axes_1">
   <g id="patch_2">
    <path d="M 54.432 354.816 
L 586.656 354.816 
L 586.656 68.544 
L 54.432 68.544 
z
" style="fill: #ffffff"/>
   </g>
   <g id="matplotlib.axis_1">
    <g id="xtick_1">
     <g id="line2d_1"/>
     <g id="text_1">
      <!-- $\mathdefault{10^{0}}$ -->
      <g style="fill: #6e6e73" transform="translate(47.392 366.89475)">
       <text>
        <tspan x="0" y="-0.78125" style="font-size: 8px; font-family: 'DejaVu Sans'; fill: #6e6e73">1</tspan>
        <tspan x="5.089844" y="-0.78125" style="font-size: 8px; font-family: 'DejaVu Sans'; fill: #6e6e73">0</tspan>
        <tspan x="10.25625" y="-3.84375" style="font-size: 5.6px; font-family: 'DejaVu Sans'; fill: #6e6e73">0</tspan>
       </text>
      </g>
     </g>
    </g>
    <g id="xtick_2">
     <g id="line2d_2"/>
     <g id="text_2">
      <!-- $\mathdefault{10^{1}}$ -->
      <g style="fill: #6e6e73" transform="translate(109.263691 366.89475)">
       <text>
        <tspan x="0" y="-0.857813" style="font-size: 8px; font-family: 'DejaVu Sans'; fill: #6e6e73">1</tspan>
        <tspan x="5.089844" y="-0.857813" style="font-size: 8px; font-family: 'DejaVu Sans'; fill: #6e6e73">0</tspan>
        <tspan x="10.25625" y="-3.920313" style="font-size: 5.6px; font-family: 'DejaVu Sans'; fill: #6e6e73">1</tspan>
       </text>
      </g>
     </g>
    </g>
    <g id="xtick_3">
     <g id="line2d_3"/>
     <g id="text_3">
      <!-- $\mathdefault{10^{2}}$ -->
      <g style="fill: #6e6e73" transform="translate(171.135383 366.89475)">
       <text>
        <tspan x="0" y="-0.78125" style="font-size: 8px; font-family: 'DejaVu Sans'; fill: #6e6e73">1</tspan>
        <tspan x="5.089844" y="-0.78125" style="font-size: 8px; font-family: 'DejaVu Sans'; fill: #6e6e73">0</tspan>
        <tspan x="10.25625" y="-3.84375" style="font-size: 5.6px; font-family: 'DejaVu Sans'; fill: #6e6e73">2</tspan>
       </text>
      </g>
     </g>
    </g>
    <g id="xtick_4">
     <g id="line2d_4"/>
     <g id="text_4">
      <!-- $\mathdefault{10^{3}}$ -->
      <g style="fill: #6e6e73" transform="translate(233.007074 366.89475)">
       <text>
        <tspan x="0" y="-0.78125" style="font-size: 8px; font-family: 'DejaVu Sans'; fill: #6e6e73">1</tspan>
        <tspan x="5.089844" y="-0.78125" style="font-size: 8px; font-family: 'DejaVu Sans'; fill: #6e6e73">0</tspan>
        <tspan x="10.25625" y="-3.84375" style="font-size: 5.6px; font-family: 'DejaVu Sans'; fill: #6e6e73">3</tspan>
       </text>
      </g>
     </g>
    </g>
    <g id="xtick_5">
     <g id="line2d_5"/>
     <g id="text_5">
      <!-- $\mathdefault{10^{4}}$ -->
      <g style="fill: #6e6e73" transform="translate(294.878765 366.89475)">
       <text>
        <tspan x="0" y="-0.857813" style="font-size: 8px; font-family: 'DejaVu Sans'; fill: #6e6e73">1</tspan>
        <tspan x="5.089844" y="-0.857813" style="font-size: 8px; font-family: 'DejaVu Sans'; fill: #6e6e73">0</tspan>
        <tspan x="10.25625" y="-3.920313" style="font-size: 5.6px; font-family: 'DejaVu Sans'; fill: #6e6e73">4</tspan>
       </text>
      </g>
     </g>
    </g>
    <g id="xtick_6">
     <g id="line2d_6"/>
     <g id="text_6">
      <!-- $\mathdefault{10^{5}}$ -->
      <g style="fill: #6e6e73" transform="translate(356.750456 366.89475)">
       <text>
        <tspan x="0" y="-0.857813" style="font-size: 8px; font-family: 'DejaVu Sans'; fill: #6e6e73">1</tspan>
        <tspan x="5.089844" y="-0.857813" style="font-size: 8px; font-family: 'DejaVu Sans'; fill: #6e6e73">0</tspan>
        <tspan x="10.25625" y="-3.920313" style="font-size: 5.6px; font-family: 'DejaVu Sans'; fill: #6e6e73">5</tspan>
       </text>
      </g>
     </g>
    </g>
    <g id="xtick_7">
     <g id="line2d_7"/>
     <g id="text_7">
      <!-- $\mathdefault{10^{6}}$ -->
      <g style="fill: #6e6e73" transform="translate(418.622148 366.89475)">
       <text>
        <tspan x="0" y="-0.78125" style="font-size: 8px; font-family: 'DejaVu Sans'; fill: #6e6e73">1</tspan>
        <tspan x="5.089844" y="-0.78125" style="font-size: 8px; font-family: 'DejaVu Sans'; fill: #6e6e73">0</tspan>
        <tspan x="10.25625" y="-3.84375" style="font-size: 5.6px; font-family: 'DejaVu Sans'; fill: #6e6e73">6</tspan>
       </text>
      </g>
     </g>
    </g>
    <g id="xtick_8">
     <g id="line2d_8"/>
     <g id="text_8">
      <!-- $\mathdefault{10^{7}}$ -->
      <g style="fill: #6e6e73" transform="translate(480.493839 366.89475)">
       <text>
        <tspan x="0" y="-0.857813" style="font-size: 8px; font-family: 'DejaVu Sans'; fill: #6e6e73">1</tspan>
        <tspan x="5.089844" y="-0.857813" style="font-size: 8px; font-family: 'DejaVu Sans'; fill: #6e6e73">0</tspan>
        <tspan x="10.25625" y="-3.920313" style="font-size: 5.6px; font-family: 'DejaVu Sans'; fill: #6e6e73">7</tspan>
       </text>
      </g>
     </g>
    </g>
    <g id="xtick_9">
     <g id="line2d_9"/>
     <g id="text_9">
      <!-- $\mathdefault{10^{8}}$ -->
      <g style="fill: #6e6e73" transform="translate(542.36553 366.89475)">
       <text>
        <tspan x="0" y="-0.78125" style="font-size: 8px; font-family: 'DejaVu Sans'; fill: #6e6e73">1</tspan>
        <tspan x="5.089844" y="-0.78125" style="font-size: 8px; font-family: 'DejaVu Sans'; fill: #6e6e73">0</tspan>
        <tspan x="10.25625" y="-3.84375" style="font-size: 5.6px; font-family: 'DejaVu Sans'; fill: #6e6e73">8</tspan>
       </text>
      </g>
     </g>
    </g>
    <g id="xtick_10">
     <g id="line2d_10"/>
    </g>
    <g id="xtick_11">
     <g id="line2d_11"/>
    </g>
    <g id="xtick_12">
     <g id="line2d_12"/>
    </g>
    <g id="xtick_13">
     <g id="line2d_13"/>
    </g>
    <g id="xtick_14">
     <g id="line2d_14"/>
    </g>
    <g id="xtick_15">
     <g id="line2d_15"/>
    </g>
    <g id="xtick_16">
     <g id="line2d_16"/>
    </g>
    <g id="xtick_17">
     <g id="line2d_17"/>
    </g>
    <g id="xtick_18">
     <g id="line2d_18"/>
    </g>
    <g id="xtick_19">
     <g id="line2d_19"/>
    </g>
    <g id="xtick_20">
     <g id="line2d_20"/>
    </g>
    <g id="xtick_21">
     <g id="line2d_21"/>
    </g>
    <g id="xtick_22">
     <g id="line2d_22"/>
    </g>
    <g id="xtick_23">
     <g id="line2d_23"/>
    </g>
    <g id="xtick_24">
     <g id="line2d_24"/>
    </g>
    <g id="xtick_25">
     <g id="line2d_25"/>
    </g>
    <g id="xtick_26">
     <g id="line2d_26"/>
    </g>
    <g id="xtick_27">
     <g id="line2d_27"/>
    </g>
    <g id="xtick_28">
     <g id="line2d_28"/>
    </g>
    <g id="xtick_29">
     <g id="line2d_29"/>
    </g>
    <g id="xtick_30">
     <g id="line2d_30"/>
    </g>
    <g id="xtick_31">
     <g id="line2d_31"/>
    </g>
    <g id="xtick_32">
     <g id="line2d_32"/>
    </g>
    <g id="xtick_33">
     <g id="line2d_33"/>
    </g>
    <g id="xtick_34">
     <g id="line2d_34"/>
    </g>
    <g id="xtick_35">
     <g id="line2d_35"/>
    </g>
    <g id="xtick_36">
     <g id="line2d_36"/>
    </g>
    <g id="xtick_37">
     <g id="line2d_37"/>
    </g>
    <g id="xtick_38">
     <g id="line2d_38"/>
    </g>
    <g id="xtick_39">
     <g id="line2d_39"/>
    </g>
    <g id="xtick_40">
     <g id="line2d_40"/>
    </g>
    <g id="xtick_41">
     <g id="line2d_41"/>
    </g>
    <g id="xtick_42">
     <g id="line2d_42"/>
    </g>
    <g id="xtick_43">
     <g id="line2d_43"/>
    </g>
    <g id="xtick_44">
     <g id="line2d_44"/>
    </g>
    <g id="xtick_45">
     <g id="line2d_45"/>
    </g>
    <g id="xtick_46">
     <g id="line2d_46"/>
    </g>
    <g id="xtick_47">
     <g id="line2d_47"/>
    </g>
    <g id="xtick_48">
     <g id="line2d_48"/>
    </g>
    <g id="xtick_49">
     <g id="line2d_49"/>
    </g>
    <g id="xtick_50">
     <g id="line2d_50"/>
    </g>
    <g id="xtick_51">
     <g id="line2d_51"/>
    </g>
    <g id="xtick_52">
     <g id="line2d_52"/>
    </g>
    <g id="xtick_53">
     <g id="line2d_53"/>
    </g>
    <g id="xtick_54">
     <g id="line2d_54"/>
    </g>
    <g id="xtick_55">
     <g id="line2d_55"/>
    </g>
    <g id="xtick_56">
     <g id="line2d_56"/>
    </g>
    <g id="xtick_57">
     <g id="line2d_57"/>
    </g>
    <g id="xtick_58">
     <g id="line2d_58"/>
    </g>
    <g id="xtick_59">
     <g id="line2d_59"/>
    </g>
    <g id="xtick_60">
     <g id="line2d_60"/>
    </g>
    <g id="xtick_61">
     <g id="line2d_61"/>
    </g>
    <g id="xtick_62">
     <g id="line2d_62"/>
    </g>
    <g id="xtick_63">
     <g id="line2d_63"/>
    </g>
    <g id="xtick_64">
     <g id="line2d_64"/>
    </g>
    <g id="xtick_65">
     <g id="line2d_65"/>
    </g>
    <g id="xtick_66">
     <g id="line2d_66"/>
    </g>
    <g id="xtick_67">
     <g id="line2d_67"/>
    </g>
    <g id="xtick_68">
     <g id="line2d_68"/>
    </g>
    <g id="xtick_69">
     <g id="line2d_69"/>
    </g>
    <g id="xtick_70">
     <g id="line2d_70"/>
    </g>
    <g id="xtick_71">
     <g id="line2d_71"/>
    </g>
    <g id="xtick_72">
     <g id="line2d_72"/>
    </g>
    <g id="xtick_73">
     <g id="line2d_73"/>
    </g>
    <g id="xtick_74">
     <g id="line2d_74"/>
    </g>
    <g id="xtick_75">
     <g id="line2d_75"/>
    </g>
    <g id="xtick_76">
     <g id="line2d_76"/>
    </g>
    <g id="text_10">
     <text style="font-size: 9px; font-family: '-apple-system', 'SF Pro Text', 'Helvetica Neue', 'Arial', 'DejaVu Sans', sans-serif; text-anchor: middle; fill: #6e6e73" x="320.544" y="379.397094" transform="rotate(-0 320.544 379.397094)">objects</text>
    </g>
   </g>
   <g id="matplotlib.axis_2">
    <g id="ytick_1">
     <g id="line2d_77">
      <path d="M 54.432 326.454668 
L 586.656 326.454668 
" clip-path="url(#pbc378fb6c2)" style="fill: none; stroke: #e9e9eb; stroke-width: 0.6; stroke-linecap: square"/>
     </g>
     <g id="line2d_78"/>
     <g id="text_11">
      <!-- $\mathdefault{10^{0}}$ -->
      <g style="fill: #6e6e73" transform="translate(34.352 329.494043)">
       <text>
        <tspan x="0" y="-0.78125" style="font-size: 8px; font-family: 'DejaVu Sans'; fill: #6e6e73">1</tspan>
        <tspan x="5.089844" y="-0.78125" style="font-size: 8px; font-family: 'DejaVu Sans'; fill: #6e6e73">0</tspan>
        <tspan x="10.25625" y="-3.84375" style="font-size: 5.6px; font-family: 'DejaVu Sans'; fill: #6e6e73">0</tspan>
       </text>
      </g>
     </g>
    </g>
    <g id="ytick_2">
     <g id="line2d_79">
      <path d="M 54.432 264.249481 
L 586.656 264.249481 
" clip-path="url(#pbc378fb6c2)" style="fill: none; stroke: #e9e9eb; stroke-width: 0.6; stroke-linecap: square"/>
     </g>
     <g id="line2d_80"/>
     <g id="text_12">
      <!-- $\mathdefault{10^{1}}$ -->
      <g style="fill: #6e6e73" transform="translate(34.352 267.288856)">
       <text>
        <tspan x="0" y="-0.857813" style="font-size: 8px; font-family: 'DejaVu Sans'; fill: #6e6e73">1</tspan>
        <tspan x="5.089844" y="-0.857813" style="font-size: 8px; font-family: 'DejaVu Sans'; fill: #6e6e73">0</tspan>
        <tspan x="10.25625" y="-3.920313" style="font-size: 5.6px; font-family: 'DejaVu Sans'; fill: #6e6e73">1</tspan>
       </text>
      </g>
     </g>
    </g>
    <g id="ytick_3">
     <g id="line2d_81">
      <path d="M 54.432 202.044295 
L 586.656 202.044295 
" clip-path="url(#pbc378fb6c2)" style="fill: none; stroke: #e9e9eb; stroke-width: 0.6; stroke-linecap: square"/>
     </g>
     <g id="line2d_82"/>
     <g id="text_13">
      <!-- $\mathdefault{10^{2}}$ -->
      <g style="fill: #6e6e73" transform="translate(34.352 205.08367)">
       <text>
        <tspan x="0" y="-0.78125" style="font-size: 8px; font-family: 'DejaVu Sans'; fill: #6e6e73">1</tspan>
        <tspan x="5.089844" y="-0.78125" style="font-size: 8px; font-family: 'DejaVu Sans'; fill: #6e6e73">0</tspan>
        <tspan x="10.25625" y="-3.84375" style="font-size: 5.6px; font-family: 'DejaVu Sans'; fill: #6e6e73">2</tspan>
       </text>
      </g>
     </g>
    </g>
    <g id="ytick_4">
     <g id="line2d_83">
      <path d="M 54.432 139.839108 
L 586.656 139.839108 
" clip-path="url(#pbc378fb6c2)" style="fill: none; stroke: #e9e9eb; stroke-width: 0.6; stroke-linecap: square"/>
     </g>
     <g id="line2d_84"/>
     <g id="text_14">
      <!-- $\mathdefault{10^{3}}$ -->
      <g style="fill: #6e6e73" transform="translate(34.352 142.878483)">
       <text>
        <tspan x="0" y="-0.78125" style="font-size: 8px; font-family: 'DejaVu Sans'; fill: #6e6e73">1</tspan>
        <tspan x="5.089844" y="-0.78125" style="font-size: 8px; font-family: 'DejaVu Sans'; fill: #6e6e73">0</tspan>
        <tspan x="10.25625" y="-3.84375" style="font-size: 5.6px; font-family: 'DejaVu Sans'; fill: #6e6e73">3</tspan>
       </text>
      </g>
     </g>
    </g>
    <g id="ytick_5">
     <g id="line2d_85">
      <path d="M 54.432 77.633922 
L 586.656 77.633922 
" clip-path="url(#pbc378fb6c2)" style="fill: none; stroke: #e9e9eb; stroke-width: 0.6; stroke-linecap: square"/>
     </g>
     <g id="line2d_86"/>
     <g id="text_15">
      <!-- $\mathdefault{10^{4}}$ -->
      <g style="fill: #6e6e73" transform="translate(34.352 80.673297)">
       <text>
        <tspan x="0" y="-0.857813" style="font-size: 8px; font-family: 'DejaVu Sans'; fill: #6e6e73">1</tspan>
        <tspan x="5.089844" y="-0.857813" style="font-size: 8px; font-family: 'DejaVu Sans'; fill: #6e6e73">0</tspan>
        <tspan x="10.25625" y="-3.920313" style="font-size: 5.6px; font-family: 'DejaVu Sans'; fill: #6e6e73">4</tspan>
       </text>
      </g>
     </g>
    </g>
    <g id="ytick_6">
     <g id="line2d_87"/>
    </g>
    <g id="ytick_7">
     <g id="line2d_88"/>
    </g>
    <g id="ytick_8">
     <g id="line2d_89"/>
    </g>
    <g id="ytick_9">
     <g id="line2d_90"/>
    </g>
    <g id="ytick_10">
     <g id="line2d_91"/>
    </g>
    <g id="ytick_11">
     <g id="line2d_92"/>
    </g>
    <g id="ytick_12">
     <g id="line2d_93"/>
    </g>
    <g id="ytick_13">
     <g id="line2d_94"/>
    </g>
    <g id="ytick_14">
     <g id="line2d_95"/>
    </g>
    <g id="ytick_15">
     <g id="line2d_96"/>
    </g>
    <g id="ytick_16">
     <g id="line2d_97"/>
    </g>
    <g id="ytick_17">
     <g id="line2d_98"/>
    </g>
    <g id="ytick_18">
     <g id="line2d_99"/>
    </g>
    <g id="ytick_19">
     <g id="line2d_100"/>
    </g>
    <g id="ytick_20">
     <g id="line2d_101"/>
    </g>
    <g id="ytick_21">
     <g id="line2d_102"/>
    </g>
    <g id="ytick_22">
     <g id="line2d_103"/>
    </g>
    <g id="ytick_23">
     <g id="line2d_104"/>
    </g>
    <g id="ytick_24">
     <g id="line2d_105"/>
    </g>
    <g id="ytick_25">
     <g id="line2d_106"/>
    </g>
    <g id="ytick_26">
     <g id="line2d_107"/>
    </g>
    <g id="ytick_27">
     <g id="line2d_108"/>
    </g>
    <g id="ytick_28">
     <g id="line2d_109"/>
    </g>
    <g id="ytick_29">
     <g id="line2d_110"/>
    </g>
    <g id="ytick_30">
     <g id="line2d_111"/>
    </g>
    <g id="ytick_31">
     <g id="line2d_112"/>
    </g>
    <g id="ytick_32">
     <g id="line2d_113"/>
    </g>
    <g id="ytick_33">
     <g id="line2d_114"/>
    </g>
    <g id="ytick_34">
     <g id="line2d_115"/>
    </g>
    <g id="ytick_35">
     <g id="line2d_116"/>
    </g>
    <g id="ytick_36">
     <g id="line2d_117"/>
    </g>
    <g id="ytick_37">
     <g id="line2d_118"/>
    </g>
    <g id="ytick_38">
     <g id="line2d_119"/>
    </g>
    <g id="ytick_39">
     <g id="line2d_120"/>
    </g>
    <g id="ytick_40">
     <g id="line2d_121"/>
    </g>
    <g id="ytick_41">
     <g id="line2d_122"/>
    </g>
    <g id="ytick_42">
     <g id="line2d_123"/>
    </g>
    <g id="ytick_43">
     <g id="line2d_124"/>
    </g>
    <g id="text_16">
     <text style="font-size: 9px; font-family: '-apple-system', 'SF Pro Text', 'Helvetica Neue', 'Arial', 'DejaVu Sans', sans-serif; text-anchor: middle; fill: #6e6e73" x="28.480281" y="211.68" transform="rotate(-90 28.480281 211.68)">avg object size  (KiB)</text>
    </g>
   </g>
   <g id="line2d_125">
    <path d="M 54.432 195.375279 
L 586.656 195.375279 
" clip-path="url(#pbc378fb6c2)" style="fill: none; stroke-dasharray: 5,4; stroke-dashoffset: 0; stroke: #6e6e73"/>
   </g>
   <g id="PathCollection_1">
    <defs>
     <path id="mf1dc94ec3b" d="M 0 16.601205 
C 4.402691 16.601205 8.625652 14.851997 11.738824 11.738824 
C 14.851997 8.625652 16.601205 4.402691 16.601205 0 
C 16.601205 -4.402691 14.851997 -8.625652 11.738824 -11.738824 
C 8.625652 -14.851997 4.402691 -16.601205 0 -16.601205 
C -4.402691 -16.601205 -8.625652 -14.851997 -11.738824 -11.738824 
C -14.851997 -8.625652 -16.601205 -4.402691 -16.601205 0 
C -16.601205 4.402691 -14.851997 8.625652 -11.738824 11.738824 
C -8.625652 14.851997 -4.402691 16.601205 0 16.601205 
z
" style="stroke: #ffffff; stroke-width: 0.8"/>
    </defs>
    <g clip-path="url(#pbc378fb6c2)">
     <use xlink:href="#mf1dc94ec3b" x="548.463137" y="178.630608" style="fill: #30d158; stroke: #ffffff; stroke-width: 0.8"/>
    </g>
   </g>
   <g id="PathCollection_2">
    <defs>
     <path id="meecf0c022c" d="M 0 9.048481 
C 2.399685 9.048481 4.701408 8.095076 6.398242 6.398242 
C 8.095076 4.701408 9.048481 2.399685 9.048481 0 
C 9.048481 -2.399685 8.095076 -4.701408 6.398242 -6.398242 
C 4.701408 -8.095076 2.399685 -9.048481 0 -9.048481 
C -2.399685 -9.048481 -4.701408 -8.095076 -6.398242 -6.398242 
C -8.095076 -4.701408 -9.048481 -2.399685 -9.048481 0 
C -9.048481 2.399685 -8.095076 4.701408 -6.398242 6.398242 
C -4.701408 8.095076 -2.399685 9.048481 0 9.048481 
z
" style="stroke: #ffffff; stroke-width: 0.8"/>
    </defs>
    <g clip-path="url(#pbc378fb6c2)">
     <use xlink:href="#meecf0c022c" x="441.942035" y="108.23358" style="fill: #ff9f0a; stroke: #ffffff; stroke-width: 0.8"/>
    </g>
   </g>
   <g id="PathCollection_3">
    <defs>
     <path id="mb160026860" d="M 0 5.121035 
C 1.358114 5.121035 2.660787 4.58145 3.621119 3.621119 
C 4.58145 2.660787 5.121035 1.358114 5.121035 0 
C 5.121035 -1.358114 4.58145 -2.660787 3.621119 -3.621119 
C 2.660787 -4.58145 1.358114 -5.121035 0 -5.121035 
C -1.358114 -5.121035 -2.660787 -4.58145 -3.621119 -3.621119 
C -4.58145 -2.660787 -5.121035 -1.358114 -5.121035 0 
C -5.121035 1.358114 -4.58145 2.660787 -3.621119 3.621119 
C -2.660787 4.58145 -1.358114 5.121035 0 5.121035 
z
" style="stroke: #ffffff; stroke-width: 0.8"/>
    </defs>
    <g clip-path="url(#pbc378fb6c2)">
     <use xlink:href="#mb160026860" x="554.295692" y="261.674641" style="fill: #ff375f; stroke: #ffffff; stroke-width: 0.8"/>
    </g>
   </g>
   <g id="PathCollection_4">
    <defs>
     <path id="m1aec676234" d="M 0 4.344537 
C 1.152185 4.344537 2.257334 3.886769 3.072051 3.072051 
C 3.886769 2.257334 4.344537 1.152185 4.344537 0 
C 4.344537 -1.152185 3.886769 -2.257334 3.072051 -3.072051 
C 2.257334 -3.886769 1.152185 -4.344537 0 -4.344537 
C -1.152185 -4.344537 -2.257334 -3.886769 -3.072051 -3.072051 
C -3.886769 -2.257334 -4.344537 -1.152185 -4.344537 0 
C -4.344537 1.152185 -3.886769 2.257334 -3.072051 3.072051 
C -2.257334 3.886769 -1.152185 4.344537 0 4.344537 
z
" style="stroke: #ffffff; stroke-width: 0.8"/>
    </defs>
    <g clip-path="url(#pbc378fb6c2)">
     <use xlink:href="#m1aec676234" x="364.065541" y="90.111264" style="fill: #ff375f; stroke: #ffffff; stroke-width: 0.8"/>
    </g>
   </g>
   <g id="PathCollection_5">
    <defs>
     <path id="m6218cba8aa" d="M 0 3.394849 
C 0.900324 3.394849 1.763895 3.037146 2.400521 2.400521 
C 3.037146 1.763895 3.394849 0.900324 3.394849 0 
C 3.394849 -0.900324 3.037146 -1.763895 2.400521 -2.400521 
C 1.763895 -3.037146 0.900324 -3.394849 0 -3.394849 
C -0.900324 -3.394849 -1.763895 -3.037146 -2.400521 -2.400521 
C -3.037146 -1.763895 -3.394849 -0.900324 -3.394849 0 
C -3.394849 0.900324 -3.037146 1.763895 -2.400521 2.400521 
C -1.763895 3.037146 -0.900324 3.394849 0 3.394849 
z
" style="stroke: #ffffff; stroke-width: 0.8"/>
    </defs>
    <g clip-path="url(#pbc378fb6c2)">
     <use xlink:href="#m6218cba8aa" x="367.317619" y="166.387048" style="fill: #8e8e93; stroke: #ffffff; stroke-width: 0.8"/>
    </g>
   </g>
   <g id="PathCollection_6">
    <defs>
     <path id="m4c76fa2215" d="M 0 3.318998 
C 0.880209 3.318998 1.724485 2.969288 2.346886 2.346886 
C 2.969288 1.724485 3.318998 0.880209 3.318998 0 
C 3.318998 -0.880209 2.969288 -1.724485 2.346886 -2.346886 
C 1.724485 -2.969288 0.880209 -3.318998 0 -3.318998 
C -0.880209 -3.318998 -1.724485 -2.969288 -2.346886 -2.346886 
C -2.969288 -1.724485 -3.318998 -0.880209 -3.318998 0 
C -3.318998 0.880209 -2.969288 1.724485 -2.346886 2.346886 
C -1.724485 2.969288 -0.880209 3.318998 0 3.318998 
z
" style="stroke: #ffffff; stroke-width: 0.8"/>
    </defs>
    <g clip-path="url(#pbc378fb6c2)">
     <use xlink:href="#m4c76fa2215" x="251.736399" y="141.185033" style="fill: #8e8e93; stroke: #ffffff; stroke-width: 0.8"/>
    </g>
   </g>
   <g id="PathCollection_7">
    <defs>
     <path id="m3314124885" d="M 0 3.317416 
C 0.879789 3.317416 1.723663 2.967872 2.345767 2.345767 
C 2.967872 1.723663 3.317416 0.879789 3.317416 0 
C 3.317416 -0.879789 2.967872 -1.723663 2.345767 -2.345767 
C 1.723663 -2.967872 0.879789 -3.317416 0 -3.317416 
C -0.879789 -3.317416 -1.723663 -2.967872 -2.345767 -2.345767 
C -2.967872 -1.723663 -3.317416 -0.879789 -3.317416 0 
C -3.317416 0.879789 -2.967872 1.723663 -2.345767 2.345767 
C -1.723663 2.967872 -0.879789 3.317416 0 3.317416 
z
" style="stroke: #ffffff; stroke-width: 0.8"/>
    </defs>
    <g clip-path="url(#pbc378fb6c2)">
     <use xlink:href="#m3314124885" x="371.640003" y="317.753463" style="fill: #8e8e93; stroke: #ffffff; stroke-width: 0.8"/>
    </g>
   </g>
   <g id="PathCollection_8">
    <g clip-path="url(#pbc378fb6c2)">
     <use xlink:href="#m3314124885" x="289.082354" y="235.672886" style="fill: #8e8e93; stroke: #ffffff; stroke-width: 0.8"/>
    </g>
   </g>
   <g id="PathCollection_9">
    <defs>
     <path id="me40407d1ff" d="M 0 3.318207 
C 0.879999 3.318207 1.724074 2.96858 2.346327 2.346327 
C 2.96858 1.724074 3.318207 0.879999 3.318207 0 
C 3.318207 -0.879999 2.96858 -1.724074 2.346327 -2.346327 
C 1.724074 -2.96858 0.879999 -3.318207 0 -3.318207 
C -0.879999 -3.318207 -1.724074 -2.96858 -2.346327 -2.346327 
C -2.96858 -1.724074 -3.318207 -0.879999 -3.318207 0 
C -3.318207 0.879999 -2.96858 1.724074 -2.346327 2.346327 
C -1.724074 2.96858 -0.879999 3.318207 0 3.318207 
z
" style="stroke: #ffffff; stroke-width: 0.8"/>
    </defs>
    <g clip-path="url(#pbc378fb6c2)">
     <use xlink:href="#me40407d1ff" x="232.954179" y="89.223097" style="fill: #ff9f0a; stroke: #ffffff; stroke-width: 0.8"/>
    </g>
   </g>
   <g id="PathCollection_10">
    <g clip-path="url(#pbc378fb6c2)">
     <use xlink:href="#m3314124885" x="171.152372" y="168.706872" style="fill: #8e8e93; stroke: #ffffff; stroke-width: 0.8"/>
    </g>
   </g>
   <g id="PathCollection_11">
    <g clip-path="url(#pbc378fb6c2)">
     <use xlink:href="#m3314124885" x="250.142144" y="338.092427" style="fill: #8e8e93; stroke: #ffffff; stroke-width: 0.8"/>
    </g>
   </g>
   <g id="PathCollection_12">
    <defs>
     <path id="m9374957e3a" d="M 0 3.317416 
C 0.879789 3.317416 1.723663 2.967872 2.345767 2.345767 
C 2.967872 1.723663 3.317416 0.879789 3.317416 0 
C 3.317416 -0.879789 2.967872 -1.723663 2.345767 -2.345767 
C 1.723663 -2.967872 0.879789 -3.317416 0 -3.317416 
C -0.879789 -3.317416 -1.723663 -2.967872 -2.345767 -2.345767 
C -2.967872 -1.723663 -3.317416 -0.879789 -3.317416 0 
C -3.317416 0.879789 -2.967872 1.723663 -2.345767 2.345767 
C -1.723663 2.967872 -0.879789 3.317416 0 3.317416 
z
" style="stroke: #ffffff; stroke-width: 0.8"/>
    </defs>
    <g clip-path="url(#pbc378fb6c2)">
     <use xlink:href="#m9374957e3a" x="73.057235" y="123.262023" style="fill: #ff375f; stroke: #ffffff; stroke-width: 0.8"/>
    </g>
   </g>
   <g id="PathCollection_13">
    <g clip-path="url(#pbc378fb6c2)">
     <use xlink:href="#m9374957e3a" x="73.057235" y="129.997522" style="fill: #ff375f; stroke: #ffffff; stroke-width: 0.8"/>
    </g>
   </g>
   <g id="PathCollection_14">
    <g clip-path="url(#pbc378fb6c2)">
     <use xlink:href="#m9374957e3a" x="127.198755" y="188.928122" style="fill: #ff375f; stroke: #ffffff; stroke-width: 0.8"/>
    </g>
   </g>
   <g id="PathCollection_15">
    <g clip-path="url(#pbc378fb6c2)">
     <use xlink:href="#m3314124885" x="91.68247" y="293.713635" style="fill: #8e8e93; stroke: #ffffff; stroke-width: 0.8"/>
    </g>
   </g>
   <g id="text_17">
    <text style="font-size: 7.5px; font-family: '-apple-system', 'SF Pro Text', 'Helvetica Neue', 'Arial', 'DejaVu Sans', sans-serif; text-anchor: end; fill: #6e6e73" x="583.824907" y="189.530739" transform="rotate(-0 583.824907 189.530739)">128 KiB · Glacier IR floor</text>
   </g>
   <g id="text_18">
    <text style="font-size: 6.8px; font-family: '-apple-system', 'SF Pro Text', 'Helvetica Neue', 'Arial', 'DejaVu Sans', sans-serif; text-anchor: end; fill: #6e6e73" x="539.636057" y="180.506983" transform="rotate(-0 539.636057 180.506983)">bitpaper</text>
   </g>
   <g id="text_19">
    <text style="font-size: 6.8px; font-family: '-apple-system', 'SF Pro Text', 'Helvetica Neue', 'Arial', 'DejaVu Sans', sans-serif; text-anchor: start; fill: #6e6e73" x="448.991903" y="110.109955" transform="rotate(-0 448.991903 110.109955)">archived-papers</text>
   </g>
   <g id="text_20">
    <text style="font-size: 6.8px; font-family: '-apple-system', 'SF Pro Text', 'Helvetica Neue', 'Arial', 'DejaVu Sans', sans-serif; text-anchor: end; fill: #6e6e73" x="545.468612" y="263.551016" transform="rotate(-0 545.468612 263.551016)">bitpaper-s3-logs</text>
   </g>
   <g id="text_21">
    <text style="font-size: 6.8px; font-family: '-apple-system', 'SF Pro Text', 'Helvetica Neue', 'Arial', 'DejaVu Sans', sans-serif; text-anchor: start; fill: #6e6e73" x="371.115409" y="91.987639" transform="rotate(-0 371.115409 91.987639)">v1-unmapped-papers</text>
   </g>
   <g id="text_22">
    <text style="font-size: 6.8px; font-family: '-apple-system', 'SF Pro Text', 'Helvetica Neue', 'Arial', 'DejaVu Sans', sans-serif; text-anchor: start; fill: #6e6e73" x="374.367487" y="168.263423" transform="rotate(-0 374.367487 168.263423)">papertrail-logs</text>
   </g>
   <g id="text_23">
    <text style="font-size: 6.8px; font-family: '-apple-system', 'SF Pro Text', 'Helvetica Neue', 'Arial', 'DejaVu Sans', sans-serif; text-anchor: start; fill: #6e6e73" x="258.786267" y="143.061408" transform="rotate(-0 258.786267 143.061408)">bitpaper-logs</text>
   </g>
   <g id="text_24">
    <text style="font-size: 6.8px; font-family: '-apple-system', 'SF Pro Text', 'Helvetica Neue', 'Arial', 'DejaVu Sans', sans-serif; text-anchor: start; fill: #6e6e73" x="378.689871" y="319.629838" transform="rotate(-0 378.689871 319.629838)">gh-logs</text>
   </g>
   <g id="text_25">
    <text style="font-size: 6.8px; font-family: '-apple-system', 'SF Pro Text', 'Helvetica Neue', 'Arial', 'DejaVu Sans', sans-serif; text-anchor: start; fill: #6e6e73" x="296.132222" y="237.549261" transform="rotate(-0 296.132222 237.549261)">alb-logs</text>
   </g>
   <g id="text_26">
    <text style="font-size: 6.8px; font-family: '-apple-system', 'SF Pro Text', 'Helvetica Neue', 'Arial', 'DejaVu Sans', sans-serif; text-anchor: start; fill: #6e6e73" x="240.004047" y="91.099472" transform="rotate(-0 240.004047 91.099472)">db-backups</text>
   </g>
   <g id="text_27">
    <text style="font-size: 6.8px; font-family: '-apple-system', 'SF Pro Text', 'Helvetica Neue', 'Arial', 'DejaVu Sans', sans-serif; text-anchor: start; fill: #6e6e73" x="178.20224" y="170.583247" transform="rotate(-0 178.20224 170.583247)">athena-results</text>
   </g>
   <g id="text_28">
    <text style="font-size: 6.8px; font-family: '-apple-system', 'SF Pro Text', 'Helvetica Neue', 'Arial', 'DejaVu Sans', sans-serif; text-anchor: start; fill: #6e6e73" x="257.192012" y="339.968802" transform="rotate(-0 257.192012 339.968802)">bitpaper-test</text>
   </g>
   <g id="text_29">
    <text style="font-size: 6.8px; font-family: '-apple-system', 'SF Pro Text', 'Helvetica Neue', 'Arial', 'DejaVu Sans', sans-serif; text-anchor: start; fill: #6e6e73" x="80.107103" y="125.138398" transform="rotate(-0 80.107103 125.138398)">papers-v1</text>
   </g>
   <g id="text_30">
    <text style="font-size: 6.8px; font-family: '-apple-system', 'SF Pro Text', 'Helvetica Neue', 'Arial', 'DejaVu Sans', sans-serif; text-anchor: start; fill: #6e6e73" x="80.107103" y="131.873897" transform="rotate(-0 80.107103 131.873897)">papers-v1-test</text>
   </g>
   <g id="text_31">
    <text style="font-size: 6.8px; font-family: '-apple-system', 'SF Pro Text', 'Helvetica Neue', 'Arial', 'DejaVu Sans', sans-serif; text-anchor: start; fill: #6e6e73" x="134.248623" y="190.804497" transform="rotate(-0 134.248623 190.804497)">serverless-deploy</text>
   </g>
   <g id="text_32">
    <text style="font-size: 6.8px; font-family: '-apple-system', 'SF Pro Text', 'Helvetica Neue', 'Arial', 'DejaVu Sans', sans-serif; text-anchor: start; fill: #6e6e73" x="98.732338" y="295.59001" transform="rotate(-0 98.732338 295.59001)">error-pages</text>
   </g>
   <g id="legend_1">
    <g id="line2d_126">
     <defs>
      <path id="m3ffedd8c5b" d="M 0 4 
C 1.060812 4 2.078319 3.578535 2.828427 2.828427 
C 3.578535 2.078319 4 1.060812 4 0 
C 4 -1.060812 3.578535 -2.078319 2.828427 -2.828427 
C 2.078319 -3.578535 1.060812 -4 0 -4 
C -1.060812 -4 -2.078319 -3.578535 -2.828427 -2.828427 
C -3.578535 -2.078319 -4 -1.060812 -4 0 
C -4 1.060812 -3.578535 2.078319 -2.828427 2.828427 
C -2.078319 3.578535 -1.060812 4 0 4 
z
" style="stroke: #ffffff; stroke-width: 0.6"/>
     </defs>
     <g>
      <use xlink:href="#m3ffedd8c5b" x="493.479047" y="299.096859" style="fill: #30d158; stroke: #ffffff; stroke-width: 0.6"/>
     </g>
    </g>
    <g id="text_33">
     <text style="font-size: 7.5px; font-family: '-apple-system', 'SF Pro Text', 'Helvetica Neue', 'Arial', 'DejaVu Sans', sans-serif; text-anchor: start; fill: #6e6e73" x="503.979047" y="301.721859" transform="rotate(-0 503.979047 301.721859)">live core</text>
    </g>
    <g id="line2d_127">
     <defs>
      <path id="mfe125b7353" d="M 0 4 
C 1.060812 4 2.078319 3.578535 2.828427 2.828427 
C 3.578535 2.078319 4 1.060812 4 0 
C 4 -1.060812 3.578535 -2.078319 2.828427 -2.828427 
C 2.078319 -3.578535 1.060812 -4 0 -4 
C -1.060812 -4 -2.078319 -3.578535 -2.828427 -2.828427 
C -3.578535 -2.078319 -4 -1.060812 -4 0 
C -4 1.060812 -3.578535 2.078319 -2.828427 2.828427 
C -2.078319 3.578535 -1.060812 4 0 4 
z
" style="stroke: #ffffff; stroke-width: 0.6"/>
     </defs>
     <g>
      <use xlink:href="#mfe125b7353" x="493.479047" y="310.105453" style="fill: #ff9f0a; stroke: #ffffff; stroke-width: 0.6"/>
     </g>
    </g>
    <g id="text_34">
     <text style="font-size: 7.5px; font-family: '-apple-system', 'SF Pro Text', 'Helvetica Neue', 'Arial', 'DejaVu Sans', sans-serif; text-anchor: start; fill: #6e6e73" x="503.979047" y="312.730453" transform="rotate(-0 503.979047 312.730453)">cold archive</text>
    </g>
    <g id="line2d_128">
     <defs>
      <path id="m222ca69067" d="M 0 4 
C 1.060812 4 2.078319 3.578535 2.828427 2.828427 
C 3.578535 2.078319 4 1.060812 4 0 
C 4 -1.060812 3.578535 -2.078319 2.828427 -2.828427 
C 2.078319 -3.578535 1.060812 -4 0 -4 
C -1.060812 -4 -2.078319 -3.578535 -2.828427 -2.828427 
C -3.578535 -2.078319 -4 -1.060812 -4 0 
C -4 1.060812 -3.578535 2.078319 -2.828427 2.828427 
C -2.078319 3.578535 -1.060812 4 0 4 
z
" style="stroke: #ffffff; stroke-width: 0.6"/>
     </defs>
     <g>
      <use xlink:href="#m222ca69067" x="493.479047" y="321.114047" style="fill: #ff375f; stroke: #ffffff; stroke-width: 0.6"/>
     </g>
    </g>
    <g id="text_35">
     <text style="font-size: 7.5px; font-family: '-apple-system', 'SF Pro Text', 'Helvetica Neue', 'Arial', 'DejaVu Sans', sans-serif; text-anchor: start; fill: #6e6e73" x="503.979047" y="323.739047" transform="rotate(-0 503.979047 323.739047)">action needed</text>
    </g>
    <g id="line2d_129">
     <defs>
      <path id="m613b796f69" d="M 0 4 
C 1.060812 4 2.078319 3.578535 2.828427 2.828427 
C 3.578535 2.078319 4 1.060812 4 0 
C 4 -1.060812 3.578535 -2.078319 2.828427 -2.828427 
C 2.078319 -3.578535 1.060812 -4 0 -4 
C -1.060812 -4 -2.078319 -3.578535 -2.828427 -2.828427 
C -3.578535 -2.078319 -4 -1.060812 -4 0 
C -4 1.060812 -3.578535 2.078319 -2.828427 2.828427 
C -2.078319 3.578535 -1.060812 4 0 4 
z
" style="stroke: #ffffff; stroke-width: 0.6"/>
     </defs>
     <g>
      <use xlink:href="#m613b796f69" x="493.479047" y="332.122641" style="fill: #8e8e93; stroke: #ffffff; stroke-width: 0.6"/>
     </g>
    </g>
    <g id="text_36">
     <text style="font-size: 7.5px; font-family: '-apple-system', 'SF Pro Text', 'Helvetica Neue', 'Arial', 'DejaVu Sans', sans-serif; text-anchor: start; fill: #6e6e73" x="503.979047" y="334.747641" transform="rotate(-0 503.979047 334.747641)">managed / trivial</text>
    </g>
    <g id="line2d_130">
     <defs>
      <path id="m3b4e77a2d7" d="M 0 5.5 
C 1.458617 5.5 2.857689 4.920485 3.889087 3.889087 
C 4.920485 2.857689 5.5 1.458617 5.5 0 
C 5.5 -1.458617 4.920485 -2.857689 3.889087 -3.889087 
C 2.857689 -4.920485 1.458617 -5.5 0 -5.5 
C -1.458617 -5.5 -2.857689 -4.920485 -3.889087 -3.889087 
C -4.920485 -2.857689 -5.5 -1.458617 -5.5 0 
C -5.5 1.458617 -4.920485 2.857689 -3.889087 3.889087 
C -2.857689 4.920485 -1.458617 5.5 0 5.5 
z
" style="stroke: #ffffff; stroke-width: 0.6"/>
     </defs>
     <g>
      <use xlink:href="#m3b4e77a2d7" x="493.479047" y="343.131234" style="fill: #6e6e73; stroke: #ffffff; stroke-width: 0.6"/>
     </g>
    </g>
    <g id="text_37">
     <text style="font-size: 7.5px; font-family: '-apple-system', 'SF Pro Text', 'Helvetica Neue', 'Arial', 'DejaVu Sans', sans-serif; text-anchor: start; fill: #6e6e73" x="503.979047" y="345.756234" transform="rotate(-0 503.979047 345.756234)">marker area ∝ $/mo</text>
    </g>
   </g>
  </g>
  <g id="text_38">
   <text style="font-weight: 700; font-size: 13px; font-family: '-apple-system', 'SF Pro Text', 'Helvetica Neue', 'Arial', 'DejaVu Sans', sans-serif; text-anchor: start; fill: #1d1d1f" x="39.312" y="28.021969" transform="rotate(-0 39.312 28.021969)">S3 object economics</text>
  </g>
  <g id="text_39">
   <text style="font-size: 9px; font-family: '-apple-system', 'SF Pro Text', 'Helvetica Neue', 'Arial', 'DejaVu Sans', sans-serif; text-anchor: start; fill: #6e6e73" x="39.312" y="42.320194" transform="rotate(-0 39.312 42.320194)">Small objects defeat archive tiers; large ones fit. Size = monthly cost.</text>
  </g>
 </g>
 <defs>
  <clipPath id="pbc378fb6c2">
   <rect x="54.432" y="68.544" width="532.224" height="286.272"/>
  </clipPath>
 </defs>
</svg>
