<?xml version="1.0" encoding="utf-8" standalone="no"?>
<!DOCTYPE svg PUBLIC "-//W3C//DTD SVG 1.1//EN"
  "http://www.w3.org/Graphics/SVG/1.1/DTD/svg11.dtd">
<svg xmlns:xlink="http://www.w3.org/1999/xlink" width="604.8pt" height="345.6pt" viewBox="0 0 604.8 345.6" xmlns="http://www.w3.org/2000/svg" version="1.1">
 <metadata>
  <rdf:RDF xmlns:dc="http://purl.org/dc/elements/1.1/" xmlns:cc="http://creativecommons.org/ns#" xmlns:rdf="http://www.w3.org/1999/02/22-rdf-syntax-ns#">
   <cc:Work>
    <dc:type rdf:resource="http://purl.org/dc/dcmitype/StillImage"/>
    <dc:date>2026-07-07T11:37:31.312380</dc:date>
    <dc:format>image/svg+xml</dc:format>
    <dc:creator>
     <cc:Agent>
      <dc:title>Matplotlib v3.10.8, https://matplotlib.org/</dc:title>
     </cc:Agent>
    </dc:creator>
   </cc:Work>
  </rdf:RDF>
 </metadata>
 <defs>
  <style type="text/css">*{stroke-linejoin: round; stroke-linecap: butt}</style>
 </defs>
 <g id="figure_1">
  <g id="patch_1">
   <path d="M 0 345.6 
L 604.8 345.6 
L 604.8 0 
L 0 0 
z
" style="fill: #ffffff"/>
  </g>
  <g id="axes_1">
   <g id="patch_2">
    <path d="M 60.48 297.216 
L 586.656 297.216 
L 586.656 69.12 
L 60.48 69.12 
z
" style="fill: #fbfbfd"/>
   </g>
   <g id="matplotlib.axis_1">
    <g id="xtick_1">
     <g id="line2d_1">
      <path d="M 60.48 297.216 
L 60.48 69.12 
" clip-path="url(#p4883de9e29)" style="fill: none; stroke: #3c3c43; stroke-width: 0.5; stroke-linecap: square"/>
     </g>
     <g id="line2d_2">
      <defs>
       <path id="m4d5cfd12a3" d="M 0 0 
L 0 3 
" style="stroke: #6e6e73; stroke-width: 0.6"/>
      </defs>
      <g>
       <use xlink:href="#m4d5cfd12a3" x="60.48" y="297.216" style="fill: #6e6e73; stroke: #6e6e73; stroke-width: 0.6"/>
      </g>
     </g>
     <g id="text_1">
      <text style="font-size: 8px; font-family: '-apple-system', 'SF Pro Text', 'Helvetica Neue', 'Arial', 'DejaVu Sans', sans-serif; text-anchor: middle; fill: #6e6e73" x="60.48" y="309.79475" transform="rotate(-0 60.48 309.79475)">0</text>
     </g>
    </g>
    <g id="xtick_2">
     <g id="line2d_3">
      <path d="M 148.176 297.216 
L 148.176 69.12 
" clip-path="url(#p4883de9e29)" style="fill: none; stroke: #3c3c43; stroke-width: 0.5; stroke-linecap: square"/>
     </g>
     <g id="line2d_4">
      <g>
       <use xlink:href="#m4d5cfd12a3" x="148.176" y="297.216" style="fill: #6e6e73; stroke: #6e6e73; stroke-width: 0.6"/>
      </g>
     </g>
     <g id="text_2">
      <text style="font-size: 8px; font-family: '-apple-system', 'SF Pro Text', 'Helvetica Neue', 'Arial', 'DejaVu Sans', sans-serif; text-anchor: middle; fill: #6e6e73" x="148.176" y="309.79475" transform="rotate(-0 148.176 309.79475)">1000</text>
     </g>
    </g>
    <g id="xtick_3">
     <g id="line2d_5">
      <path d="M 235.872 297.216 
L 235.872 69.12 
" clip-path="url(#p4883de9e29)" style="fill: none; stroke: #3c3c43; stroke-width: 0.5; stroke-linecap: square"/>
     </g>
     <g id="line2d_6">
      <g>
       <use xlink:href="#m4d5cfd12a3" x="235.872" y="297.216" style="fill: #6e6e73; stroke: #6e6e73; stroke-width: 0.6"/>
      </g>
     </g>
     <g id="text_3">
      <text style="font-size: 8px; font-family: '-apple-system', 'SF Pro Text', 'Helvetica Neue', 'Arial', 'DejaVu Sans', sans-serif; text-anchor: middle; fill: #6e6e73" x="235.872" y="309.79475" transform="rotate(-0 235.872 309.79475)">2000</text>
     </g>
    </g>
    <g id="xtick_4">
     <g id="line2d_7">
      <path d="M 323.568 297.216 
L 323.568 69.12 
" clip-path="url(#p4883de9e29)" style="fill: none; stroke: #3c3c43; stroke-width: 0.5; stroke-linecap: square"/>
     </g>
     <g id="line2d_8">
      <g>
       <use xlink:href="#m4d5cfd12a3" x="323.568" y="297.216" style="fill: #6e6e73; stroke: #6e6e73; stroke-width: 0.6"/>
      </g>
     </g>
     <g id="text_4">
      <text style="font-size: 8px; font-family: '-apple-system', 'SF Pro Text', 'Helvetica Neue', 'Arial', 'DejaVu Sans', sans-serif; text-anchor: middle; fill: #6e6e73" x="323.568" y="309.79475" transform="rotate(-0 323.568 309.79475)">3000</text>
     </g>
    </g>
    <g id="xtick_5">
     <g id="line2d_9">
      <path d="M 411.264 297.216 
L 411.264 69.12 
" clip-path="url(#p4883de9e29)" style="fill: none; stroke: #3c3c43; stroke-width: 0.5; stroke-linecap: square"/>
     </g>
     <g id="line2d_10">
      <g>
       <use xlink:href="#m4d5cfd12a3" x="411.264" y="297.216" style="fill: #6e6e73; stroke: #6e6e73; stroke-width: 0.6"/>
      </g>
     </g>
     <g id="text_5">
      <text style="font-size: 8px; font-family: '-apple-system', 'SF Pro Text', 'Helvetica Neue', 'Arial', 'DejaVu Sans', sans-serif; text-anchor: middle; fill: #6e6e73" x="411.264" y="309.79475" transform="rotate(-0 411.264 309.79475)">4000</text>
     </g>
    </g>
    <g id="xtick_6">
     <g id="line2d_11">
      <path d="M 498.96 297.216 
L 498.96 69.12 
" clip-path="url(#p4883de9e29)" style="fill: none; stroke: #3c3c43; stroke-width: 0.5; stroke-linecap: square"/>
     </g>
     <g id="line2d_12">
      <g>
       <use xlink:href="#m4d5cfd12a3" x="498.96" y="297.216" style="fill: #6e6e73; stroke: #6e6e73; stroke-width: 0.6"/>
      </g>
     </g>
     <g id="text_6">
      <text style="font-size: 8px; font-family: '-apple-system', 'SF Pro Text', 'Helvetica Neue', 'Arial', 'DejaVu Sans', sans-serif; text-anchor: middle; fill: #6e6e73" x="498.96" y="309.79475" transform="rotate(-0 498.96 309.79475)">5000</text>
     </g>
    </g>
    <g id="xtick_7">
     <g id="line2d_13">
      <path d="M 586.656 297.216 
L 586.656 69.12 
" clip-path="url(#p4883de9e29)" style="fill: none; stroke: #3c3c43; stroke-width: 0.5; stroke-linecap: square"/>
     </g>
     <g id="line2d_14">
      <g>
       <use xlink:href="#m4d5cfd12a3" x="586.656" y="297.216" style="fill: #6e6e73; stroke: #6e6e73; stroke-width: 0.6"/>
      </g>
     </g>
     <g id="text_7">
      <text style="font-size: 8px; font-family: '-apple-system', 'SF Pro Text', 'Helvetica Neue', 'Arial', 'DejaVu Sans', sans-serif; text-anchor: middle; fill: #6e6e73" x="586.656" y="309.79475" transform="rotate(-0 586.656 309.79475)">6000</text>
     </g>
    </g>
    <g id="text_8">
     <text style="font-size: 9px; font-family: '-apple-system', 'SF Pro Text', 'Helvetica Neue', 'Arial', 'DejaVu Sans', sans-serif; text-anchor: middle; fill: #6e6e73" x="323.568" y="322.297094" transform="rotate(-0 323.568 322.297094)">monthly dearchive volume  (GiB read)</text>
    </g>
   </g>
   <g id="matplotlib.axis_2">
    <g id="ytick_1">
     <g id="line2d_15">
      <path d="M 60.48 297.216 
L 586.656 297.216 
" clip-path="url(#p4883de9e29)" style="fill: none; stroke: #3c3c43; stroke-width: 0.5; stroke-linecap: square"/>
     </g>
     <g id="line2d_16">
      <defs>
       <path id="m1c995964ef" d="M 0 0 
L -3 0 
" style="stroke: #6e6e73; stroke-width: 0.6"/>
      </defs>
      <g>
       <use xlink:href="#m1c995964ef" x="60.48" y="297.216" style="fill: #6e6e73; stroke: #6e6e73; stroke-width: 0.6"/>
      </g>
     </g>
     <g id="text_9">
      <text style="font-size: 8px; font-family: '-apple-system', 'SF Pro Text', 'Helvetica Neue', 'Arial', 'DejaVu Sans', sans-serif; text-anchor: end; fill: #6e6e73" x="53.98" y="300.255375" transform="rotate(-0 53.98 300.255375)">0</text>
     </g>
    </g>
    <g id="ytick_2">
     <g id="line2d_17">
      <path d="M 60.48 269.399415 
L 586.656 269.399415 
" clip-path="url(#p4883de9e29)" style="fill: none; stroke: #3c3c43; stroke-width: 0.5; stroke-linecap: square"/>
     </g>
     <g id="line2d_18">
      <g>
       <use xlink:href="#m1c995964ef" x="60.48" y="269.399415" style="fill: #6e6e73; stroke: #6e6e73; stroke-width: 0.6"/>
      </g>
     </g>
     <g id="text_10">
      <text style="font-size: 8px; font-family: '-apple-system', 'SF Pro Text', 'Helvetica Neue', 'Arial', 'DejaVu Sans', sans-serif; text-anchor: end; fill: #6e6e73" x="53.98" y="272.43879" transform="rotate(-0 53.98 272.43879)">25</text>
     </g>
    </g>
    <g id="ytick_3">
     <g id="line2d_19">
      <path d="M 60.48 241.582829 
L 586.656 241.582829 
" clip-path="url(#p4883de9e29)" style="fill: none; stroke: #3c3c43; stroke-width: 0.5; stroke-linecap: square"/>
     </g>
     <g id="line2d_20">
      <g>
       <use xlink:href="#m1c995964ef" x="60.48" y="241.582829" style="fill: #6e6e73; stroke: #6e6e73; stroke-width: 0.6"/>
      </g>
     </g>
     <g id="text_11">
      <text style="font-size: 8px; font-family: '-apple-system', 'SF Pro Text', 'Helvetica Neue', 'Arial', 'DejaVu Sans', sans-serif; text-anchor: end; fill: #6e6e73" x="53.98" y="244.622204" transform="rotate(-0 53.98 244.622204)">50</text>
     </g>
    </g>
    <g id="ytick_4">
     <g id="line2d_21">
      <path d="M 60.48 213.766244 
L 586.656 213.766244 
" clip-path="url(#p4883de9e29)" style="fill: none; stroke: #3c3c43; stroke-width: 0.5; stroke-linecap: square"/>
     </g>
     <g id="line2d_22">
      <g>
       <use xlink:href="#m1c995964ef" x="60.48" y="213.766244" style="fill: #6e6e73; stroke: #6e6e73; stroke-width: 0.6"/>
      </g>
     </g>
     <g id="text_12">
      <text style="font-size: 8px; font-family: '-apple-system', 'SF Pro Text', 'Helvetica Neue', 'Arial', 'DejaVu Sans', sans-serif; text-anchor: end; fill: #6e6e73" x="53.98" y="216.805619" transform="rotate(-0 53.98 216.805619)">75</text>
     </g>
    </g>
    <g id="ytick_5">
     <g id="line2d_23">
      <path d="M 60.48 185.949659 
L 586.656 185.949659 
" clip-path="url(#p4883de9e29)" style="fill: none; stroke: #3c3c43; stroke-width: 0.5; stroke-linecap: square"/>
     </g>
     <g id="line2d_24">
      <g>
       <use xlink:href="#m1c995964ef" x="60.48" y="185.949659" style="fill: #6e6e73; stroke: #6e6e73; stroke-width: 0.6"/>
      </g>
     </g>
     <g id="text_13">
      <text style="font-size: 8px; font-family: '-apple-system', 'SF Pro Text', 'Helvetica Neue', 'Arial', 'DejaVu Sans', sans-serif; text-anchor: end; fill: #6e6e73" x="53.98" y="188.989034" transform="rotate(-0 53.98 188.989034)">100</text>
     </g>
    </g>
    <g id="ytick_6">
     <g id="line2d_25">
      <path d="M 60.48 158.133073 
L 586.656 158.133073 
" clip-path="url(#p4883de9e29)" style="fill: none; stroke: #3c3c43; stroke-width: 0.5; stroke-linecap: square"/>
     </g>
     <g id="line2d_26">
      <g>
       <use xlink:href="#m1c995964ef" x="60.48" y="158.133073" style="fill: #6e6e73; stroke: #6e6e73; stroke-width: 0.6"/>
      </g>
     </g>
     <g id="text_14">
      <text style="font-size: 8px; font-family: '-apple-system', 'SF Pro Text', 'Helvetica Neue', 'Arial', 'DejaVu Sans', sans-serif; text-anchor: end; fill: #6e6e73" x="53.98" y="161.172448" transform="rotate(-0 53.98 161.172448)">125</text>
     </g>
    </g>
    <g id="ytick_7">
     <g id="line2d_27">
      <path d="M 60.48 130.316488 
L 586.656 130.316488 
" clip-path="url(#p4883de9e29)" style="fill: none; stroke: #3c3c43; stroke-width: 0.5; stroke-linecap: square"/>
     </g>
     <g id="line2d_28">
      <g>
       <use xlink:href="#m1c995964ef" x="60.48" y="130.316488" style="fill: #6e6e73; stroke: #6e6e73; stroke-width: 0.6"/>
      </g>
     </g>
     <g id="text_15">
      <text style="font-size: 8px; font-family: '-apple-system', 'SF Pro Text', 'Helvetica Neue', 'Arial', 'DejaVu Sans', sans-serif; text-anchor: end; fill: #6e6e73" x="53.98" y="133.355863" transform="rotate(-0 53.98 133.355863)">150</text>
     </g>
    </g>
    <g id="ytick_8">
     <g id="line2d_29">
      <path d="M 60.48 102.499902 
L 586.656 102.499902 
" clip-path="url(#p4883de9e29)" style="fill: none; stroke: #3c3c43; stroke-width: 0.5; stroke-linecap: square"/>
     </g>
     <g id="line2d_30">
      <g>
       <use xlink:href="#m1c995964ef" x="60.48" y="102.499902" style="fill: #6e6e73; stroke: #6e6e73; stroke-width: 0.6"/>
      </g>
     </g>
     <g id="text_16">
      <text style="font-size: 8px; font-family: '-apple-system', 'SF Pro Text', 'Helvetica Neue', 'Arial', 'DejaVu Sans', sans-serif; text-anchor: end; fill: #6e6e73" x="53.98" y="105.539277" transform="rotate(-0 53.98 105.539277)">175</text>
     </g>
    </g>
    <g id="ytick_9">
     <g id="line2d_31">
      <path d="M 60.48 74.683317 
L 586.656 74.683317 
" clip-path="url(#p4883de9e29)" style="fill: none; stroke: #3c3c43; stroke-width: 0.5; stroke-linecap: square"/>
     </g>
     <g id="line2d_32">
      <g>
       <use xlink:href="#m1c995964ef" x="60.48" y="74.683317" style="fill: #6e6e73; stroke: #6e6e73; stroke-width: 0.6"/>
      </g>
     </g>
     <g id="text_17">
      <text style="font-size: 8px; font-family: '-apple-system', 'SF Pro Text', 'Helvetica Neue', 'Arial', 'DejaVu Sans', sans-serif; text-anchor: end; fill: #6e6e73" x="53.98" y="77.722692" transform="rotate(-0 53.98 77.722692)">200</text>
     </g>
    </g>
    <g id="text_18">
     <text style="font-size: 9px; font-family: '-apple-system', 'SF Pro Text', 'Helvetica Neue', 'Arial', 'DejaVu Sans', sans-serif; text-anchor: middle; fill: #6e6e73" x="32.838281" y="183.168" transform="rotate(-90 32.838281 183.168)">$ / month</text>
    </g>
   </g>
   <g id="FillBetweenPolyCollection_1">
    <defs>
     <path id="m8048dd1566" d="M 60.48 -270.916683 
L 60.48 -48.384 
L 61.798737 -48.384 
L 63.117474 -48.384 
L 64.436211 -48.384 
L 65.754947 -48.384 
L 67.073684 -48.384 
L 68.392421 -48.384 
L 69.711158 -48.384 
L 71.029895 -48.384 
L 72.348632 -48.384 
L 73.667368 -48.384 
L 74.986105 -48.384 
L 76.304842 -48.384 
L 77.623579 -48.384 
L 78.942316 -48.384 
L 80.261053 -48.384 
L 81.579789 -48.384 
L 82.898526 -48.384 
L 84.217263 -48.384 
L 85.536 -48.384 
L 86.854737 -48.384 
L 88.173474 -48.384 
L 89.492211 -48.384 
L 90.810947 -48.384 
L 92.129684 -48.384 
L 93.448421 -48.384 
L 94.767158 -48.384 
L 96.085895 -48.384 
L 97.404632 -48.384 
L 98.723368 -48.384 
L 100.042105 -48.384 
L 101.360842 -48.384 
L 102.679579 -48.384 
L 103.998316 -48.384 
L 105.317053 -48.384 
L 106.635789 -48.384 
L 107.954526 -48.384 
L 109.273263 -48.384 
L 110.592 -48.384 
L 111.910737 -48.384 
L 113.229474 -48.384 
L 114.548211 -48.384 
L 115.866947 -48.384 
L 117.185684 -48.384 
L 118.504421 -48.384 
L 119.823158 -48.384 
L 121.141895 -48.384 
L 122.460632 -48.384 
L 123.779368 -48.384 
L 125.098105 -48.384 
L 126.416842 -48.384 
L 127.735579 -48.384 
L 129.054316 -48.384 
L 130.373053 -48.384 
L 131.691789 -48.384 
L 133.010526 -48.384 
L 134.329263 -48.384 
L 135.648 -48.384 
L 136.966737 -48.384 
L 138.285474 -48.384 
L 139.604211 -48.384 
L 140.922947 -48.384 
L 142.241684 -48.384 
L 143.560421 -48.384 
L 144.879158 -48.384 
L 146.197895 -48.384 
L 147.516632 -48.384 
L 148.835368 -48.384 
L 150.154105 -48.384 
L 151.472842 -48.384 
L 152.791579 -48.384 
L 154.110316 -48.384 
L 155.429053 -48.384 
L 156.747789 -48.384 
L 158.066526 -48.384 
L 159.385263 -48.384 
L 160.704 -48.384 
L 162.022737 -48.384 
L 163.341474 -48.384 
L 164.660211 -48.384 
L 165.978947 -48.384 
L 167.297684 -48.384 
L 168.616421 -48.384 
L 169.935158 -48.384 
L 171.253895 -48.384 
L 172.572632 -48.384 
L 173.891368 -48.384 
L 175.210105 -48.384 
L 176.528842 -48.384 
L 177.847579 -48.384 
L 179.166316 -48.384 
L 180.485053 -48.384 
L 181.803789 -48.384 
L 183.122526 -48.384 
L 184.441263 -48.384 
L 185.76 -48.384 
L 187.078737 -48.384 
L 188.397474 -48.384 
L 189.716211 -48.384 
L 191.034947 -48.384 
L 192.353684 -48.384 
L 193.672421 -48.384 
L 194.991158 -48.384 
L 196.309895 -48.384 
L 197.628632 -48.384 
L 198.947368 -48.384 
L 200.266105 -48.384 
L 201.584842 -48.384 
L 202.903579 -48.384 
L 204.222316 -48.384 
L 205.541053 -48.384 
L 206.859789 -48.384 
L 208.178526 -48.384 
L 209.497263 -48.384 
L 210.816 -48.384 
L 212.134737 -48.384 
L 213.453474 -48.384 
L 214.772211 -48.384 
L 216.090947 -48.384 
L 217.409684 -48.384 
L 218.728421 -48.384 
L 220.047158 -48.384 
L 221.365895 -48.384 
L 222.684632 -48.384 
L 224.003368 -48.384 
L 225.322105 -48.384 
L 226.640842 -48.384 
L 227.959579 -48.384 
L 229.278316 -48.384 
L 230.597053 -48.384 
L 231.915789 -48.384 
L 233.234526 -48.384 
L 234.553263 -48.384 
L 235.872 -48.384 
L 237.190737 -48.384 
L 238.509474 -48.384 
L 239.828211 -48.384 
L 241.146947 -48.384 
L 242.465684 -48.384 
L 243.784421 -48.384 
L 245.103158 -48.384 
L 246.421895 -48.384 
L 247.740632 -48.384 
L 249.059368 -48.384 
L 250.378105 -48.384 
L 251.696842 -48.384 
L 253.015579 -48.384 
L 254.334316 -48.384 
L 255.653053 -48.384 
L 256.971789 -48.384 
L 258.290526 -48.384 
L 259.609263 -48.384 
L 260.928 -48.384 
L 262.246737 -48.384 
L 263.565474 -48.384 
L 264.884211 -48.384 
L 266.202947 -48.384 
L 267.521684 -48.384 
L 268.840421 -48.384 
L 270.159158 -48.384 
L 271.477895 -48.384 
L 272.796632 -48.384 
L 274.115368 -48.384 
L 275.434105 -48.384 
L 276.752842 -48.384 
L 278.071579 -48.384 
L 279.390316 -48.384 
L 280.709053 -48.384 
L 282.027789 -48.384 
L 283.346526 -48.384 
L 284.665263 -48.384 
L 285.984 -48.384 
L 287.302737 -48.384 
L 288.621474 -48.384 
L 289.940211 -48.384 
L 291.258947 -48.384 
L 292.577684 -48.384 
L 293.896421 -48.384 
L 295.215158 -48.384 
L 296.533895 -48.384 
L 297.852632 -48.384 
L 299.171368 -48.384 
L 300.490105 -48.384 
L 301.808842 -48.384 
L 303.127579 -48.384 
L 304.446316 -48.384 
L 305.765053 -48.384 
L 307.083789 -48.384 
L 308.402526 -48.384 
L 309.721263 -48.384 
L 311.04 -48.384 
L 312.358737 -48.384 
L 313.677474 -48.384 
L 314.996211 -48.384 
L 316.314947 -48.384 
L 317.633684 -48.384 
L 318.952421 -48.384 
L 320.271158 -48.384 
L 321.589895 -48.384 
L 322.908632 -48.384 
L 324.227368 -48.384 
L 325.546105 -48.384 
L 326.864842 -48.384 
L 328.183579 -48.384 
L 329.502316 -48.384 
L 330.821053 -48.384 
L 332.139789 -48.384 
L 333.458526 -48.384 
L 334.777263 -48.384 
L 336.096 -48.384 
L 337.414737 -48.384 
L 338.733474 -48.384 
L 340.052211 -48.384 
L 341.370947 -48.384 
L 342.689684 -48.384 
L 344.008421 -48.384 
L 345.327158 -48.384 
L 346.645895 -48.384 
L 347.964632 -48.384 
L 349.283368 -48.384 
L 350.602105 -48.384 
L 351.920842 -48.384 
L 353.239579 -48.384 
L 354.558316 -48.384 
L 355.877053 -48.384 
L 357.195789 -48.384 
L 358.514526 -48.384 
L 359.833263 -48.384 
L 361.152 -48.384 
L 362.470737 -48.384 
L 363.789474 -48.384 
L 365.108211 -48.384 
L 366.426947 -48.384 
L 367.745684 -48.384 
L 369.064421 -48.384 
L 370.383158 -48.384 
L 371.701895 -48.384 
L 373.020632 -48.384 
L 374.339368 -48.384 
L 375.658105 -48.384 
L 376.976842 -48.384 
L 378.295579 -48.384 
L 379.614316 -48.384 
L 380.933053 -48.384 
L 382.251789 -48.384 
L 383.570526 -48.384 
L 384.889263 -48.384 
L 386.208 -48.384 
L 387.526737 -48.384 
L 387.526737 -270.916683 
L 387.526737 -270.916683 
L 386.208 -270.916683 
L 384.889263 -270.916683 
L 383.570526 -270.916683 
L 382.251789 -270.916683 
L 380.933053 -270.916683 
L 379.614316 -270.916683 
L 378.295579 -270.916683 
L 376.976842 -270.916683 
L 375.658105 -270.916683 
L 374.339368 -270.916683 
L 373.020632 -270.916683 
L 371.701895 -270.916683 
L 370.383158 -270.916683 
L 369.064421 -270.916683 
L 367.745684 -270.916683 
L 366.426947 -270.916683 
L 365.108211 -270.916683 
L 363.789474 -270.916683 
L 362.470737 -270.916683 
L 361.152 -270.916683 
L 359.833263 -270.916683 
L 358.514526 -270.916683 
L 357.195789 -270.916683 
L 355.877053 -270.916683 
L 354.558316 -270.916683 
L 353.239579 -270.916683 
L 351.920842 -270.916683 
L 350.602105 -270.916683 
L 349.283368 -270.916683 
L 347.964632 -270.916683 
L 346.645895 -270.916683 
L 345.327158 -270.916683 
L 344.008421 -270.916683 
L 342.689684 -270.916683 
L 341.370947 -270.916683 
L 340.052211 -270.916683 
L 338.733474 -270.916683 
L 337.414737 -270.916683 
L 336.096 -270.916683 
L 334.777263 -270.916683 
L 333.458526 -270.916683 
L 332.139789 -270.916683 
L 330.821053 -270.916683 
L 329.502316 -270.916683 
L 328.183579 -270.916683 
L 326.864842 -270.916683 
L 325.546105 -270.916683 
L 324.227368 -270.916683 
L 322.908632 -270.916683 
L 321.589895 -270.916683 
L 320.271158 -270.916683 
L 318.952421 -270.916683 
L 317.633684 -270.916683 
L 316.314947 -270.916683 
L 314.996211 -270.916683 
L 313.677474 -270.916683 
L 312.358737 -270.916683 
L 311.04 -270.916683 
L 309.721263 -270.916683 
L 308.402526 -270.916683 
L 307.083789 -270.916683 
L 305.765053 -270.916683 
L 304.446316 -270.916683 
L 303.127579 -270.916683 
L 301.808842 -270.916683 
L 300.490105 -270.916683 
L 299.171368 -270.916683 
L 297.852632 -270.916683 
L 296.533895 -270.916683 
L 295.215158 -270.916683 
L 293.896421 -270.916683 
L 292.577684 -270.916683 
L 291.258947 -270.916683 
L 289.940211 -270.916683 
L 288.621474 -270.916683 
L 287.302737 -270.916683 
L 285.984 -270.916683 
L 284.665263 -270.916683 
L 283.346526 -270.916683 
L 282.027789 -270.916683 
L 280.709053 -270.916683 
L 279.390316 -270.916683 
L 278.071579 -270.916683 
L 276.752842 -270.916683 
L 275.434105 -270.916683 
L 274.115368 -270.916683 
L 272.796632 -270.916683 
L 271.477895 -270.916683 
L 270.159158 -270.916683 
L 268.840421 -270.916683 
L 267.521684 -270.916683 
L 266.202947 -270.916683 
L 264.884211 -270.916683 
L 263.565474 -270.916683 
L 262.246737 -270.916683 
L 260.928 -270.916683 
L 259.609263 -270.916683 
L 258.290526 -270.916683 
L 256.971789 -270.916683 
L 255.653053 -270.916683 
L 254.334316 -270.916683 
L 253.015579 -270.916683 
L 251.696842 -270.916683 
L 250.378105 -270.916683 
L 249.059368 -270.916683 
L 247.740632 -270.916683 
L 246.421895 -270.916683 
L 245.103158 -270.916683 
L 243.784421 -270.916683 
L 242.465684 -270.916683 
L 241.146947 -270.916683 
L 239.828211 -270.916683 
L 238.509474 -270.916683 
L 237.190737 -270.916683 
L 235.872 -270.916683 
L 234.553263 -270.916683 
L 233.234526 -270.916683 
L 231.915789 -270.916683 
L 230.597053 -270.916683 
L 229.278316 -270.916683 
L 227.959579 -270.916683 
L 226.640842 -270.916683 
L 225.322105 -270.916683 
L 224.003368 -270.916683 
L 222.684632 -270.916683 
L 221.365895 -270.916683 
L 220.047158 -270.916683 
L 218.728421 -270.916683 
L 217.409684 -270.916683 
L 216.090947 -270.916683 
L 214.772211 -270.916683 
L 213.453474 -270.916683 
L 212.134737 -270.916683 
L 210.816 -270.916683 
L 209.497263 -270.916683 
L 208.178526 -270.916683 
L 206.859789 -270.916683 
L 205.541053 -270.916683 
L 204.222316 -270.916683 
L 202.903579 -270.916683 
L 201.584842 -270.916683 
L 200.266105 -270.916683 
L 198.947368 -270.916683 
L 197.628632 -270.916683 
L 196.309895 -270.916683 
L 194.991158 -270.916683 
L 193.672421 -270.916683 
L 192.353684 -270.916683 
L 191.034947 -270.916683 
L 189.716211 -270.916683 
L 188.397474 -270.916683 
L 187.078737 -270.916683 
L 185.76 -270.916683 
L 184.441263 -270.916683 
L 183.122526 -270.916683 
L 181.803789 -270.916683 
L 180.485053 -270.916683 
L 179.166316 -270.916683 
L 177.847579 -270.916683 
L 176.528842 -270.916683 
L 175.210105 -270.916683 
L 173.891368 -270.916683 
L 172.572632 -270.916683 
L 171.253895 -270.916683 
L 169.935158 -270.916683 
L 168.616421 -270.916683 
L 167.297684 -270.916683 
L 165.978947 -270.916683 
L 164.660211 -270.916683 
L 163.341474 -270.916683 
L 162.022737 -270.916683 
L 160.704 -270.916683 
L 159.385263 -270.916683 
L 158.066526 -270.916683 
L 156.747789 -270.916683 
L 155.429053 -270.916683 
L 154.110316 -270.916683 
L 152.791579 -270.916683 
L 151.472842 -270.916683 
L 150.154105 -270.916683 
L 148.835368 -270.916683 
L 147.516632 -270.916683 
L 146.197895 -270.916683 
L 144.879158 -270.916683 
L 143.560421 -270.916683 
L 142.241684 -270.916683 
L 140.922947 -270.916683 
L 139.604211 -270.916683 
L 138.285474 -270.916683 
L 136.966737 -270.916683 
L 135.648 -270.916683 
L 134.329263 -270.916683 
L 133.010526 -270.916683 
L 131.691789 -270.916683 
L 130.373053 -270.916683 
L 129.054316 -270.916683 
L 127.735579 -270.916683 
L 126.416842 -270.916683 
L 125.098105 -270.916683 
L 123.779368 -270.916683 
L 122.460632 -270.916683 
L 121.141895 -270.916683 
L 119.823158 -270.916683 
L 118.504421 -270.916683 
L 117.185684 -270.916683 
L 115.866947 -270.916683 
L 114.548211 -270.916683 
L 113.229474 -270.916683 
L 111.910737 -270.916683 
L 110.592 -270.916683 
L 109.273263 -270.916683 
L 107.954526 -270.916683 
L 106.635789 -270.916683 
L 105.317053 -270.916683 
L 103.998316 -270.916683 
L 102.679579 -270.916683 
L 101.360842 -270.916683 
L 100.042105 -270.916683 
L 98.723368 -270.916683 
L 97.404632 -270.916683 
L 96.085895 -270.916683 
L 94.767158 -270.916683 
L 93.448421 -270.916683 
L 92.129684 -270.916683 
L 90.810947 -270.916683 
L 89.492211 -270.916683 
L 88.173474 -270.916683 
L 86.854737 -270.916683 
L 85.536 -270.916683 
L 84.217263 -270.916683 
L 82.898526 -270.916683 
L 81.579789 -270.916683 
L 80.261053 -270.916683 
L 78.942316 -270.916683 
L 77.623579 -270.916683 
L 76.304842 -270.916683 
L 74.986105 -270.916683 
L 73.667368 -270.916683 
L 72.348632 -270.916683 
L 71.029895 -270.916683 
L 69.711158 -270.916683 
L 68.392421 -270.916683 
L 67.073684 -270.916683 
L 65.754947 -270.916683 
L 64.436211 -270.916683 
L 63.117474 -270.916683 
L 61.798737 -270.916683 
L 60.48 -270.916683 
z
" style="stroke: #30d158; stroke-opacity: 0.06"/>
    </defs>
    <g clip-path="url(#p4883de9e29)">
     <use xlink:href="#m8048dd1566" x="0" y="345.6" style="fill: #30d158; fill-opacity: 0.06; stroke: #30d158; stroke-opacity: 0.06"/>
    </g>
   </g>
   <g id="FillBetweenPolyCollection_2">
    <defs>
     <path id="m26cf81d95a" d="M 388.845474 -270.916683 
L 388.845474 -48.384 
L 390.164211 -48.384 
L 391.482947 -48.384 
L 392.801684 -48.384 
L 394.120421 -48.384 
L 395.439158 -48.384 
L 396.757895 -48.384 
L 398.076632 -48.384 
L 399.395368 -48.384 
L 400.714105 -48.384 
L 402.032842 -48.384 
L 403.351579 -48.384 
L 404.670316 -48.384 
L 405.989053 -48.384 
L 407.307789 -48.384 
L 408.626526 -48.384 
L 409.945263 -48.384 
L 411.264 -48.384 
L 412.582737 -48.384 
L 413.901474 -48.384 
L 415.220211 -48.384 
L 416.538947 -48.384 
L 417.857684 -48.384 
L 419.176421 -48.384 
L 420.495158 -48.384 
L 421.813895 -48.384 
L 423.132632 -48.384 
L 424.451368 -48.384 
L 425.770105 -48.384 
L 427.088842 -48.384 
L 428.407579 -48.384 
L 429.726316 -48.384 
L 431.045053 -48.384 
L 432.363789 -48.384 
L 433.682526 -48.384 
L 435.001263 -48.384 
L 436.32 -48.384 
L 437.638737 -48.384 
L 438.957474 -48.384 
L 440.276211 -48.384 
L 441.594947 -48.384 
L 442.913684 -48.384 
L 444.232421 -48.384 
L 445.551158 -48.384 
L 446.869895 -48.384 
L 448.188632 -48.384 
L 449.507368 -48.384 
L 450.826105 -48.384 
L 452.144842 -48.384 
L 453.463579 -48.384 
L 454.782316 -48.384 
L 456.101053 -48.384 
L 457.419789 -48.384 
L 458.738526 -48.384 
L 460.057263 -48.384 
L 461.376 -48.384 
L 462.694737 -48.384 
L 464.013474 -48.384 
L 465.332211 -48.384 
L 466.650947 -48.384 
L 467.969684 -48.384 
L 469.288421 -48.384 
L 470.607158 -48.384 
L 471.925895 -48.384 
L 473.244632 -48.384 
L 474.563368 -48.384 
L 475.882105 -48.384 
L 477.200842 -48.384 
L 478.519579 -48.384 
L 479.838316 -48.384 
L 481.157053 -48.384 
L 482.475789 -48.384 
L 483.794526 -48.384 
L 485.113263 -48.384 
L 486.432 -48.384 
L 487.750737 -48.384 
L 489.069474 -48.384 
L 490.388211 -48.384 
L 491.706947 -48.384 
L 493.025684 -48.384 
L 494.344421 -48.384 
L 495.663158 -48.384 
L 496.981895 -48.384 
L 498.300632 -48.384 
L 499.619368 -48.384 
L 500.938105 -48.384 
L 502.256842 -48.384 
L 503.575579 -48.384 
L 504.894316 -48.384 
L 506.213053 -48.384 
L 507.531789 -48.384 
L 508.850526 -48.384 
L 510.169263 -48.384 
L 511.488 -48.384 
L 512.806737 -48.384 
L 514.125474 -48.384 
L 515.444211 -48.384 
L 516.762947 -48.384 
L 518.081684 -48.384 
L 519.400421 -48.384 
L 520.719158 -48.384 
L 522.037895 -48.384 
L 523.356632 -48.384 
L 524.675368 -48.384 
L 525.994105 -48.384 
L 527.312842 -48.384 
L 528.631579 -48.384 
L 529.950316 -48.384 
L 531.269053 -48.384 
L 532.587789 -48.384 
L 533.906526 -48.384 
L 535.225263 -48.384 
L 536.544 -48.384 
L 537.862737 -48.384 
L 539.181474 -48.384 
L 540.500211 -48.384 
L 541.818947 -48.384 
L 543.137684 -48.384 
L 544.456421 -48.384 
L 545.775158 -48.384 
L 547.093895 -48.384 
L 548.412632 -48.384 
L 549.731368 -48.384 
L 551.050105 -48.384 
L 552.368842 -48.384 
L 553.687579 -48.384 
L 555.006316 -48.384 
L 556.325053 -48.384 
L 557.643789 -48.384 
L 558.962526 -48.384 
L 560.281263 -48.384 
L 561.6 -48.384 
L 562.918737 -48.384 
L 564.237474 -48.384 
L 565.556211 -48.384 
L 566.874947 -48.384 
L 568.193684 -48.384 
L 569.512421 -48.384 
L 570.831158 -48.384 
L 572.149895 -48.384 
L 573.468632 -48.384 
L 574.787368 -48.384 
L 576.106105 -48.384 
L 577.424842 -48.384 
L 578.743579 -48.384 
L 580.062316 -48.384 
L 581.381053 -48.384 
L 582.699789 -48.384 
L 584.018526 -48.384 
L 585.337263 -48.384 
L 586.656 -48.384 
L 586.656 -270.916683 
L 586.656 -270.916683 
L 585.337263 -270.916683 
L 584.018526 -270.916683 
L 582.699789 -270.916683 
L 581.381053 -270.916683 
L 580.062316 -270.916683 
L 578.743579 -270.916683 
L 577.424842 -270.916683 
L 576.106105 -270.916683 
L 574.787368 -270.916683 
L 573.468632 -270.916683 
L 572.149895 -270.916683 
L 570.831158 -270.916683 
L 569.512421 -270.916683 
L 568.193684 -270.916683 
L 566.874947 -270.916683 
L 565.556211 -270.916683 
L 564.237474 -270.916683 
L 562.918737 -270.916683 
L 561.6 -270.916683 
L 560.281263 -270.916683 
L 558.962526 -270.916683 
L 557.643789 -270.916683 
L 556.325053 -270.916683 
L 555.006316 -270.916683 
L 553.687579 -270.916683 
L 552.368842 -270.916683 
L 551.050105 -270.916683 
L 549.731368 -270.916683 
L 548.412632 -270.916683 
L 547.093895 -270.916683 
L 545.775158 -270.916683 
L 544.456421 -270.916683 
L 543.137684 -270.916683 
L 541.818947 -270.916683 
L 540.500211 -270.916683 
L 539.181474 -270.916683 
L 537.862737 -270.916683 
L 536.544 -270.916683 
L 535.225263 -270.916683 
L 533.906526 -270.916683 
L 532.587789 -270.916683 
L 531.269053 -270.916683 
L 529.950316 -270.916683 
L 528.631579 -270.916683 
L 527.312842 -270.916683 
L 525.994105 -270.916683 
L 524.675368 -270.916683 
L 523.356632 -270.916683 
L 522.037895 -270.916683 
L 520.719158 -270.916683 
L 519.400421 -270.916683 
L 518.081684 -270.916683 
L 516.762947 -270.916683 
L 515.444211 -270.916683 
L 514.125474 -270.916683 
L 512.806737 -270.916683 
L 511.488 -270.916683 
L 510.169263 -270.916683 
L 508.850526 -270.916683 
L 507.531789 -270.916683 
L 506.213053 -270.916683 
L 504.894316 -270.916683 
L 503.575579 -270.916683 
L 502.256842 -270.916683 
L 500.938105 -270.916683 
L 499.619368 -270.916683 
L 498.300632 -270.916683 
L 496.981895 -270.916683 
L 495.663158 -270.916683 
L 494.344421 -270.916683 
L 493.025684 -270.916683 
L 491.706947 -270.916683 
L 490.388211 -270.916683 
L 489.069474 -270.916683 
L 487.750737 -270.916683 
L 486.432 -270.916683 
L 485.113263 -270.916683 
L 483.794526 -270.916683 
L 482.475789 -270.916683 
L 481.157053 -270.916683 
L 479.838316 -270.916683 
L 478.519579 -270.916683 
L 477.200842 -270.916683 
L 475.882105 -270.916683 
L 474.563368 -270.916683 
L 473.244632 -270.916683 
L 471.925895 -270.916683 
L 470.607158 -270.916683 
L 469.288421 -270.916683 
L 467.969684 -270.916683 
L 466.650947 -270.916683 
L 465.332211 -270.916683 
L 464.013474 -270.916683 
L 462.694737 -270.916683 
L 461.376 -270.916683 
L 460.057263 -270.916683 
L 458.738526 -270.916683 
L 457.419789 -270.916683 
L 456.101053 -270.916683 
L 454.782316 -270.916683 
L 453.463579 -270.916683 
L 452.144842 -270.916683 
L 450.826105 -270.916683 
L 449.507368 -270.916683 
L 448.188632 -270.916683 
L 446.869895 -270.916683 
L 445.551158 -270.916683 
L 444.232421 -270.916683 
L 442.913684 -270.916683 
L 441.594947 -270.916683 
L 440.276211 -270.916683 
L 438.957474 -270.916683 
L 437.638737 -270.916683 
L 436.32 -270.916683 
L 435.001263 -270.916683 
L 433.682526 -270.916683 
L 432.363789 -270.916683 
L 431.045053 -270.916683 
L 429.726316 -270.916683 
L 428.407579 -270.916683 
L 427.088842 -270.916683 
L 425.770105 -270.916683 
L 424.451368 -270.916683 
L 423.132632 -270.916683 
L 421.813895 -270.916683 
L 420.495158 -270.916683 
L 419.176421 -270.916683 
L 417.857684 -270.916683 
L 416.538947 -270.916683 
L 415.220211 -270.916683 
L 413.901474 -270.916683 
L 412.582737 -270.916683 
L 411.264 -270.916683 
L 409.945263 -270.916683 
L 408.626526 -270.916683 
L 407.307789 -270.916683 
L 405.989053 -270.916683 
L 404.670316 -270.916683 
L 403.351579 -270.916683 
L 402.032842 -270.916683 
L 400.714105 -270.916683 
L 399.395368 -270.916683 
L 398.076632 -270.916683 
L 396.757895 -270.916683 
L 395.439158 -270.916683 
L 394.120421 -270.916683 
L 392.801684 -270.916683 
L 391.482947 -270.916683 
L 390.164211 -270.916683 
L 388.845474 -270.916683 
z
" style="stroke: #ff375f; stroke-opacity: 0.06"/>
    </defs>
    <g clip-path="url(#p4883de9e29)">
     <use xlink:href="#m26cf81d95a" x="0" y="345.6" style="fill: #ff375f; fill-opacity: 0.06; stroke: #ff375f; stroke-opacity: 0.06"/>
    </g>
   </g>
   <g id="line2d_33">
    <path d="M 387.8784 297.216 
L 387.8784 69.12 
" clip-path="url(#p4883de9e29)" style="fill: none; stroke-dasharray: 5,4; stroke-dashoffset: 0; stroke: #6e6e73"/>
   </g>
   <g id="patch_3">
    <path d="M 60.48 297.216 
L 60.48 69.12 
" style="fill: none; stroke: #3c3c43; stroke-opacity: 0.28; stroke-width: 0.8; stroke-linejoin: miter; stroke-linecap: square"/>
   </g>
   <g id="patch_4">
    <path d="M 60.48 297.216 
L 586.656 297.216 
" style="fill: none; stroke: #3c3c43; stroke-opacity: 0.28; stroke-width: 0.8; stroke-linejoin: miter; stroke-linecap: square"/>
   </g>
   <g id="line2d_34">
    <path d="M 60.48 147.006439 
L 586.656 147.006439 
L 586.656 147.006439 
" clip-path="url(#p4883de9e29)" style="fill: none; stroke: #8e8e93; stroke-width: 2; stroke-linecap: square"/>
   </g>
   <g id="line2d_35">
    <path d="M 60.48 271.624741 
L 586.656 71.345327 
L 586.656 71.345327 
" clip-path="url(#p4883de9e29)" style="fill: none; stroke: #ff9f0a; stroke-width: 2; stroke-linecap: square"/>
   </g>
   <g id="text_19">
    <text style="font-size: 8px; font-family: '-apple-system', 'SF Pro Text', 'Helvetica Neue', 'Arial', 'DejaVu Sans', sans-serif; text-anchor: end; fill: #1d1d1f" x="377.35488" y="108.624796" transform="rotate(-0 377.35488 108.624796)">break-even  3.7 TiB/mo dearchived</text>
   </g>
   <g id="text_20">
    <text style="font-size: 8px; font-family: '-apple-system', 'SF Pro Text', 'Helvetica Neue', 'Arial', 'DejaVu Sans', sans-serif; text-anchor: start; fill: #30d158" x="76.26528" y="266.043598" transform="rotate(-0 76.26528 266.043598)">GIR cheaper</text>
   </g>
   <g id="text_21">
    <text style="font-size: 8px; font-family: '-apple-system', 'SF Pro Text', 'Helvetica Neue', 'Arial', 'DejaVu Sans', sans-serif; text-anchor: end; fill: #ff375f" x="570.87072" y="91.888701" transform="rotate(-0 570.87072 91.888701)">GIR loses</text>
   </g>
   <g id="PathCollection_1">
    <defs>
     <path id="m1a96281dc5" d="M 0 3.24037 
C 0.859356 3.24037 1.683631 2.898944 2.291288 2.291288 
C 2.898944 1.683631 3.24037 0.859356 3.24037 0 
C 3.24037 -0.859356 2.898944 -1.683631 2.291288 -2.291288 
C 1.683631 -2.898944 0.859356 -3.24037 0 -3.24037 
C -0.859356 -3.24037 -1.683631 -2.898944 -2.291288 -2.291288 
C -2.898944 -1.683631 -3.24037 -0.859356 -3.24037 0 
C -3.24037 0.859356 -2.898944 1.683631 -2.291288 2.291288 
C -1.683631 2.898944 -0.859356 3.24037 0 3.24037 
z
" style="stroke: #ffffff"/>
    </defs>
    <g clip-path="url(#p4883de9e29)">
     <use xlink:href="#m1a96281dc5" x="387.8784" y="147.006439" style="fill: #1d1d1f; stroke: #ffffff"/>
    </g>
   </g>
   <g id="legend_1">
    <g id="line2d_36">
     <path d="M 68.48 80.39875 
L 76.48 80.39875 
L 84.48 80.39875 
" style="fill: none; stroke: #8e8e93; stroke-width: 2; stroke-linecap: square"/>
    </g>
    <g id="text_22">
     <text style="font-size: 8px; font-family: '-apple-system', 'SF Pro Text', 'Helvetica Neue', 'Arial', 'DejaVu Sans', sans-serif; text-anchor: start; fill: #6e6e73" x="89.28" y="83.19875" transform="rotate(-0 89.28 83.19875)">Standard  $135 flat</text>
    </g>
    <g id="line2d_37">
     <path d="M 68.48 92.14125 
L 76.48 92.14125 
L 84.48 92.14125 
" style="fill: none; stroke: #ff9f0a; stroke-width: 2; stroke-linecap: square"/>
    </g>
    <g id="text_23">
     <!-- Glacier IR  $23 + $0.03/GiB read -->
     <g style="fill: #6e6e73" transform="translate(89.28 94.94125)">
      <text>
       <tspan x="0" y="-0.921875" style="font-size: 8px; font-family: 'DejaVu Sans'; fill: #6e6e73">G</tspan>
       <tspan x="6.199219" y="-0.921875" style="font-size: 8px; font-family: 'DejaVu Sans'; fill: #6e6e73">l</tspan>
       <tspan x="8.421875" y="-0.921875" style="font-size: 8px; font-family: 'DejaVu Sans'; fill: #6e6e73">a</tspan>
       <tspan x="13.324219" y="-0.921875" style="font-size: 8px; font-family: 'DejaVu Sans'; fill: #6e6e73">c</tspan>
       <tspan x="17.722656" y="-0.921875" style="font-size: 8px; font-family: 'DejaVu Sans'; fill: #6e6e73">i</tspan>
       <tspan x="19.945312" y="-0.921875" style="font-size: 8px; font-family: 'DejaVu Sans'; fill: #6e6e73">e</tspan>
       <tspan x="24.867188" y="-0.921875" style="font-size: 8px; font-family: 'DejaVu Sans'; fill: #6e6e73">r</tspan>
       <tspan x="28.15625" y="-0.921875" style="font-size: 8px; font-family: 'DejaVu Sans'; fill: #6e6e73"> </tspan>
       <tspan x="30.699219" y="-0.921875" style="font-size: 8px; font-family: 'DejaVu Sans'; fill: #6e6e73">I</tspan>
       <tspan x="33.058594" y="-0.921875" style="font-size: 8px; font-family: 'DejaVu Sans'; fill: #6e6e73">R</tspan>
       <tspan x="38.617188" y="-0.921875" style="font-size: 8px; font-family: 'DejaVu Sans'; fill: #6e6e73"> </tspan>
       <tspan x="41.160156" y="-0.921875" style="font-size: 8px; font-family: 'DejaVu Sans'; fill: #6e6e73"> </tspan>
       <tspan x="43.703125" y="-0.921875" style="font-size: 8px; font-family: 'DejaVu Sans'; fill: #6e6e73">2</tspan>
       <tspan x="48.792969" y="-0.921875" style="font-size: 8px; font-family: 'DejaVu Sans'; fill: #6e6e73">3</tspan>
       <tspan x="55.441406" y="-0.921875" style="font-size: 8px; font-family: 'DejaVu Sans'; fill: #6e6e73">+</tspan>
       <tspan x="63.703125" y="-0.921875" style="font-size: 8px; font-family: 'DejaVu Sans'; fill: #6e6e73">0</tspan>
       <tspan x="68.792969" y="-0.921875" style="font-size: 8px; font-family: 'DejaVu Sans'; fill: #6e6e73">.</tspan>
       <tspan x="71.335938" y="-0.921875" style="font-size: 8px; font-family: 'DejaVu Sans'; fill: #6e6e73">0</tspan>
       <tspan x="76.425781" y="-0.921875" style="font-size: 8px; font-family: 'DejaVu Sans'; fill: #6e6e73">3</tspan>
       <tspan x="81.515625" y="-0.921875" style="font-size: 8px; font-family: 'DejaVu Sans'; fill: #6e6e73">/</tspan>
       <tspan x="84.210938" y="-0.921875" style="font-size: 8px; font-family: 'DejaVu Sans'; fill: #6e6e73">G</tspan>
       <tspan x="90.410156" y="-0.921875" style="font-size: 8px; font-family: 'DejaVu Sans'; fill: #6e6e73">i</tspan>
       <tspan x="92.632812" y="-0.921875" style="font-size: 8px; font-family: 'DejaVu Sans'; fill: #6e6e73">B</tspan>
       <tspan x="98.121094" y="-0.921875" style="font-size: 8px; font-family: 'DejaVu Sans'; fill: #6e6e73"> </tspan>
       <tspan x="100.664062" y="-0.921875" style="font-size: 8px; font-family: 'DejaVu Sans'; fill: #6e6e73">r</tspan>
       <tspan x="103.953125" y="-0.921875" style="font-size: 8px; font-family: 'DejaVu Sans'; fill: #6e6e73">e</tspan>
       <tspan x="108.875" y="-0.921875" style="font-size: 8px; font-family: 'DejaVu Sans'; fill: #6e6e73">a</tspan>
       <tspan x="113.777344" y="-0.921875" style="font-size: 8px; font-family: 'DejaVu Sans'; fill: #6e6e73">d</tspan>
      </text>
     </g>
    </g>
   </g>
  </g>
  <g id="text_24">
   <text style="font-weight: 700; font-size: 13px; font-family: '-apple-system', 'SF Pro Text', 'Helvetica Neue', 'Arial', 'DejaVu Sans', sans-serif; text-anchor: start; fill: #1d1d1f" x="39.312" y="25.429969" transform="rotate(-0 39.312 25.429969)">archived-papers break-even</text>
  </g>
  <g id="text_25">
   <text style="font-size: 9px; font-family: '-apple-system', 'SF Pro Text', 'Helvetica Neue', 'Arial', 'DejaVu Sans', sans-serif; text-anchor: start; fill: #6e6e73" x="39.312" y="37.251394" transform="rotate(-0 39.312 37.251394)">Glacier IR saves $112/mo until dearchive traffic crosses 3.7 TiB.</text>
  </g>
 </g>
 <defs>
  <clipPath id="p4883de9e29">
   <rect x="60.48" y="69.12" width="526.176" height="228.096"/>
  </clipPath>
 </defs>
</svg>
